<svg  width="2537" height="600" xmlns="http://www.w3.org/2000/svg" ><path  d="
 M 1243 19 M 1243 17 M 1245 18
 L 1247 18 C 1250 19, 1252, 19, 1257, 20
 C 1258 22, 1256, 21, 1255, 22
 C 1222 24, 1189, 23, 1161, 24
 C 1156 24, 1157, 28, 1154, 28
 C 1148 23, 1147, 31, 1140, 30
 C 1145 29, 1148, 32, 1152, 29
 C 1233 28, 1317, 30, 1392, 31
 C 1390 29, 1383, 27, 1377, 24
 C 1347 23, 1316, 24, 1289, 22
 C 1286 19, 1290, 20, 1291, 19
 C 1385 18, 1476, 24, 1571, 24
 C 1604 26, 1635, 36, 1665, 36
 C 1664 38, 1663, 38, 1662, 39
 C 1698 48, 1732, 50, 1767, 58
 C 1773 58, 1776, 56, 1779, 55
 C 1779 51, 1774, 47, 1774, 42
 C 1775 40, 1776, 39, 1779, 40
 C 1788 44, 1797, 46, 1804, 53
 C 1800 46, 1792, 45, 1788, 38
 C 1786 35, 1787, 33, 1789, 33
 C 1896 73, 1997, 120, 2102, 160
 C 2106 162, 2108, 164, 2107, 167
 C 2102 173, 2101, 178, 2098, 183
 L 2099 185 L 2100 185
 L 2102 186 C 2108 182, 2108, 172, 2116, 169
 C 2128 169, 2139, 168, 2149, 169
 C 2154 175, 2150, 180, 2148, 184
 C 2152 184, 2154, 182, 2158, 183
 C 2161 183, 2161, 185, 2162, 185
 C 2168 183, 2171, 177, 2175, 175
 C 2180 177, 2182, 179, 2183, 182
 C 2187 177, 2186, 171, 2190, 169
 C 2203 169, 2212, 167, 2222, 167
 C 2231 183, 2234, 201, 2234, 216
 C 2242 212, 2247, 207, 2249, 203
 C 2256 201, 2258, 207, 2260, 209
 C 2262 201, 2263, 192, 2270, 186
 C 2276 179, 2281, 172, 2288, 170
 C 2310 168, 2333, 169, 2354, 169
 C 2359 181, 2368, 184, 2369, 197
 C 2369 211, 2371, 221, 2373, 235
 C 2368 246, 2358, 251, 2351, 256
 C 2376 259, 2399, 267, 2424, 265
 C 2450 266, 2474, 268, 2496, 263
 C 2495 265, 2496, 271, 2491, 272
 C 2495 271, 2498, 272, 2500, 274
 C 2501 279, 2501, 281, 2500, 282
 C 2486 302, 2469, 318, 2454, 333
 C 2447 338, 2442, 340, 2437, 341
 C 2419 343, 2402, 344, 2387, 348
 C 2368 371, 2346, 391, 2325, 408
 C 2319 410, 2315, 413, 2311, 413
 C 2294 415, 2279, 414, 2264, 414
 C 2248 417, 2239, 407, 2226, 408
 C 2168 436, 2114, 466, 2059, 495
 C 2052 495, 2048, 493, 2047, 488
 C 2048 476, 2050, 463, 2054, 452
 C 2058 441, 2067, 435, 2074, 431
 L 2075 429 L 2074 428 L 2074 428
 L 2074 425 C 2077 426, 2078, 425, 2079, 422
 C 2071 426, 2065, 428, 2058, 429
 C 1980 440, 1906, 452, 1832, 463
 C 1835 463, 1839, 461, 1842, 463
 C 1833 464, 1826, 467, 1819, 465
 C 1721 480, 1639, 494, 1543, 507
 C 1537 510, 1532, 512, 1526, 512
 C 1531 518, 1540, 523, 1541, 531
 C 1540 534, 1541, 537, 1539, 538
 C 1536 543, 1533, 547, 1529, 548
 C 1516 543, 1506, 533, 1493, 528
 C 1485 526, 1479, 524, 1473, 523
 C 1467 526, 1463, 526, 1460, 527
 C 1455 529, 1454, 532, 1453, 535
 C 1446 537, 1443, 534, 1440, 533
 C 1410 544, 1382, 551, 1354, 559
 C 1332 564, 1313, 567, 1294, 571
 C 1284 571, 1276, 572, 1269, 572
 C 1237 568, 1210, 562, 1181, 558
 C 1159 551, 1140, 543, 1120, 538
 C 1114 535, 1109, 535, 1105, 532
 C 1102 528, 1106, 528, 1106, 527
 C 1074 522, 1040, 516, 1009, 511
 C 999 508, 994, 510, 986, 511
 C 978 510, 974, 508, 971, 505
 C 964 504, 958, 505, 954, 504
 C 948 502, 945, 502, 942, 500
 C 928 496, 918, 500, 905, 496
 C 906 493, 911, 495, 914, 494
 C 899 491, 886, 497, 870, 492
 C 873 490, 875, 488, 877, 488
 C 851 484, 824, 482, 800, 481
 L 799 478 L 800 478 L 802 479
 L 799 477 C 779 475, 734, 465, 699, 466
 L 697 465 L 696 465
 L 696 463 C 697 462, 698, 461, 701, 462
 C 620 451, 539, 437, 459, 426
 C 458 424, 462, 426, 464, 425
 C 455 425, 451, 421, 444, 417
 C 439 418, 438, 419, 439, 422
 C 451 429, 464, 435, 474, 446
 C 478 460, 481, 471, 485, 483
 C 483 488, 482, 490, 481, 492
 C 477 494, 475, 493, 474, 494
 C 431 469, 386, 453, 347, 427
 C 318 416, 285, 420, 258, 410
 C 246 404, 237, 401, 229, 393
 C 217 385, 208, 375, 198, 369
 C 188 362, 179, 358, 171, 353
 C 143 345, 114, 345, 86, 341
 C 64 328, 47, 306, 30, 289
 C 22 281, 28, 270, 37, 272
 C 34 269, 31, 266, 32, 263
 C 53 267, 75, 265, 95, 266
 C 115 265, 131, 264, 146, 261
 C 150 262, 151, 264, 153, 263
 C 154 269, 152, 272, 153, 276
 C 155 276, 158, 276, 160, 277
 C 159 274, 159, 271, 156, 270
 C 160 251, 154, 234, 159, 218
 C 165 204, 171, 194, 182, 186
 C 192 180, 200, 176, 209, 173
 C 237 171, 264, 171, 290, 172
 C 296 177, 299, 182, 301, 187
 C 307 186, 311, 189, 313, 193
 C 317 198, 319, 201, 321, 204
 C 326 206, 324, 201, 327, 200
 C 345 194, 358, 184, 375, 181
 C 384 177, 383, 187, 389, 183
 C 388 181, 386, 182, 385, 181
 L 384 180 L 385 179 L 385 178
 L 386 177 C 392 173, 396, 179, 401, 178
 C 408 176, 411, 173, 416, 173
 C 435 172, 450, 171, 468, 172
 C 472 172, 473, 174, 474, 176
 C 478 181, 478, 187, 480, 191
 C 483 189, 482, 186, 484, 185
 C 481 179, 482, 175, 479, 172
 C 458 172, 439, 168, 420, 171
 C 416 170, 411, 168, 413, 166
 C 525 123, 631, 74, 741, 34
 C 743 32, 744, 32, 745, 32
 L 745 34 L 745 35 L 746 37
 L 745 39 C 738 42, 732, 47, 727, 52
 C 737 44, 749, 40, 759, 34
 L 761 35 L 762 36 L 764 38
 L 763 40 C 761 45, 754, 48, 752, 53
 C 754 59, 759, 58, 763, 59
 C 789 57, 808, 47, 832, 46
 C 841 48, 848, 44, 857, 44
 C 855 43, 854, 42, 852, 42
 C 864 41, 869, 41, 877, 39
 C 875 40, 874, 38, 872, 38
 C 874 37, 876, 35, 879, 36
 C 884 34, 886, 36, 888, 37
 C 911 32, 931, 28, 952, 26
 C 1052 22, 1143, 19, 1240, 19" fill="rgb(154,108,78)" />
<path  d="
 M 511 167 C 501 169, 491, 170, 484, 178
 C 486 187, 481, 194, 483, 204
 C 465 206, 449, 204, 435, 207
 C 424 209, 416, 211, 409, 215
 C 400 218, 395, 225, 391, 230
 C 385 236, 385, 242, 382, 247
 C 381 252, 382, 255, 385, 255
 C 401 255, 415, 253, 429, 256
 C 433 254, 435, 254, 435, 253
 C 437 241, 434, 229, 437, 220
 C 449 218, 460, 219, 471, 219
 C 474 219, 474, 221, 475, 221
 C 479 265, 474, 310, 481, 349
 C 478 353, 477, 354, 475, 353
 C 460 353, 450, 351, 438, 350
 C 434 330, 435, 311, 434, 293
 C 414 293, 399, 291, 381, 292
 C 378 292, 376, 293, 376, 295
 C 376 302, 376, 307, 378, 312
 C 382 328, 391, 339, 397, 351
 C 393 361, 384, 362, 379, 366
 C 370 368, 365, 375, 359, 373
 C 348 359, 344, 345, 338, 331
 C 336 317, 333, 307, 334, 295
 C 333 276, 334, 260, 339, 245
 C 342 235, 344, 226, 349, 220
 C 343 220, 339, 225, 334, 222
 C 329 218, 329, 213, 326, 210
 C 317 206, 317, 194, 309, 190
 C 306 188, 305, 188, 304, 189
 C 303 194, 303, 198, 304, 203
 L 304 205 L 303 206 L 302 206
 L 299 207 C 276 208, 247, 204, 224, 209
 C 218 211, 215, 215, 212, 217
 C 207 224, 205, 229, 203, 235
 C 203 246, 201, 255, 204, 262
 C 206 273, 210, 280, 215, 286
 C 222 297, 230, 304, 240, 308
 C 247 312, 254, 313, 260, 314
 C 264 298, 265, 284, 264, 269
 C 260 261, 251, 268, 248, 261
 C 244 249, 245, 238, 245, 228
 L 245 226 L 246 225 L 248 225
 L 250 223 C 269 223, 285, 231, 306, 227
 C 304 264, 307, 300, 307, 336
 C 305 342, 307, 347, 304, 350
 C 284 353, 265, 350, 248, 353
 C 236 349, 226, 349, 218, 343
 C 205 336, 196, 328, 188, 318
 C 176 305, 166, 291, 160, 277
 C 156 277, 155, 277, 154, 277
 C 154 287, 156, 296, 160, 301
 C 151 298, 144, 291, 137, 285
 C 128 286, 121, 285, 114, 286
 C 117 295, 123, 302, 127, 309
 C 138 313, 147, 313, 155, 316
 C 161 318, 163, 322, 167, 324
 C 167 328, 169, 328, 168, 329
 C 164 331, 161, 332, 159, 333
 C 136 327, 114, 326, 92, 323
 C 71 309, 59, 288, 39, 275
 C 33 270, 25, 276, 28, 282
 C 32 290, 37, 295, 43, 300
 C 57 314, 69, 331, 84, 339
 C 114 344, 143, 344, 168, 352
 C 178 356, 186, 361, 194, 364
 C 210 375, 223, 390, 238, 399
 C 245 403, 250, 406, 256, 408
 C 285 419, 318, 415, 344, 426
 C 386 452, 431, 468, 471, 493
 C 476 493, 478, 492, 479, 491
 C 484 486, 484, 481, 483, 476
 C 482 478, 482, 480, 479, 481
 C 454 462, 424, 454, 401, 436
 C 406 432, 411, 428, 417, 429
 C 439 438, 457, 451, 476, 461
 C 476 455, 476, 451, 474, 448
 C 463 435, 451, 430, 439, 424
 C 437 419, 438, 417, 442, 416
 C 432 410, 424, 402, 415, 396
 C 414 392, 414, 391, 414, 390
 C 419 386, 421, 382, 426, 383
 C 436 389, 443, 398, 449, 406
 C 454 411, 458, 415, 463, 416
 C 588 432, 707, 454, 828, 472
 C 841 479, 857, 474, 867, 481
 C 885 481, 899, 484, 913, 486
 C 923 487, 930, 490, 936, 493
 C 946 493, 952, 495, 958, 495
 C 957 501, 949, 498, 944, 499
 C 958 505, 972, 502, 983, 510
 C 989 510, 996, 509, 996, 507
 C 989 505, 985, 504, 979, 505
 C 977 502, 975, 502, 973, 501
 C 982 499, 990, 498, 997, 497
 C 940 487, 886, 477, 832, 470
 C 722 451, 615, 430, 507, 413
 C 505 406, 502, 403, 505, 399
 C 512 396, 518, 396, 523, 395
 C 534 399, 543, 400, 552, 401
 C 563 407, 573, 409, 581, 415
 C 608 418, 629, 415, 655, 415
 C 648 412, 637, 415, 632, 409
 C 632 395, 640, 385, 644, 375
 C 649 378, 656, 376, 658, 382
 C 665 395, 676, 404, 683, 414
 C 676 420, 665, 415, 657, 417
 C 667 421, 677, 421, 686, 425
 C 697 427, 704, 427, 714, 426
 C 717 432, 719, 430, 724, 430
 C 730 432, 733, 431, 737, 431
 C 731 428, 725, 427, 717, 428
 C 721 427, 725, 422, 729, 422
 C 755 421, 780, 422, 804, 421
 C 808 419, 811, 417, 814, 415
 C 818 408, 822, 403, 823, 397
 C 839 399, 840, 418, 854, 419
 C 877 423, 897, 420, 918, 420
 C 932 418, 941, 412, 950, 405
 C 963 395, 966, 381, 975, 372
 C 984 374, 991, 370, 997, 373
 C 1013 378, 1025, 389, 1040, 392
 C 1048 393, 1054, 393, 1060, 393
 C 1071 391, 1079, 385, 1088, 383
 C 1097 380, 1100, 387, 1105, 390
 C 1115 393, 1124, 391, 1132, 392
 C 1145 389, 1150, 379, 1159, 374
 C 1165 380, 1170, 372, 1175, 372
 L 1177 373 L 1177 375 L 1179 376
 L 1181 377 C 1183 377, 1185, 375, 1188, 373
 C 1196 375, 1204, 375, 1211, 377
 C 1224 384, 1237, 398, 1248, 406
 C 1260 412, 1269, 418, 1279, 420
 C 1290 421, 1299, 420, 1307, 420
 C 1315 418, 1322, 417, 1327, 414
 C 1346 407, 1359, 393, 1374, 383
 C 1380 385, 1382, 388, 1385, 391
 C 1387 400, 1390, 406, 1395, 412
 C 1400 415, 1404, 419, 1408, 419
 C 1437 421, 1465, 421, 1494, 420
 C 1506 416, 1513, 406, 1521, 398
 C 1533 397, 1539, 399, 1549, 398
 C 1559 407, 1560, 420, 1567, 430
 C 1570 437, 1574, 440, 1580, 439
 C 1596 437, 1609, 429, 1622, 422
 C 1631 412, 1640, 402, 1650, 397
 C 1659 400, 1669, 394, 1675, 397
 C 1680 407, 1689, 416, 1696, 420
 C 1710 424, 1722, 420, 1736, 422
 C 1743 420, 1747, 418, 1752, 415
 C 1761 404, 1772, 393, 1780, 386
 C 1784 389, 1788, 389, 1792, 388
 C 1801 395, 1803, 403, 1806, 411
 C 1813 417, 1819, 419, 1824, 422
 C 1827 426, 1823, 425, 1823, 426
 C 1834 426, 1842, 426, 1850, 426
 C 1863 423, 1874, 420, 1885, 418
 C 1899 416, 1912, 416, 1924, 416
 C 1945 415, 1959, 403, 1977, 401
 C 1998 399, 2016, 397, 2034, 392
 C 2045 390, 2054, 388, 2063, 391
 C 2071 391, 2074, 395, 2078, 397
 C 2073 402, 2069, 407, 2063, 406
 C 1922 430, 1784, 457, 1644, 479
 C 1637 478, 1637, 484, 1632, 482
 C 1571 490, 1514, 501, 1456, 511
 C 1459 514, 1463, 513, 1467, 514
 C 1468 518, 1471, 520, 1467, 522
 C 1403 529, 1340, 542, 1277, 550
 C 1218 545, 1164, 534, 1108, 527
 C 1103 528, 1106, 531, 1106, 532
 C 1132 541, 1156, 548, 1179, 556
 C 1210 561, 1237, 567, 1266, 570
 C 1291 573, 1308, 565, 1328, 563
 C 1367 555, 1403, 545, 1437, 533
 C 1443 533, 1446, 536, 1451, 534
 C 1453 531, 1455, 529, 1458, 527
 C 1470 524, 1479, 519, 1491, 520
 C 1493 515, 1482, 515, 1484, 511
 C 1494 511, 1501, 511, 1508, 509
 C 1519 502, 1532, 506, 1541, 499
 C 1561 495, 1567, 504, 1579, 501
 C 1578 498, 1577, 497, 1578, 495
 C 1587 493, 1594, 494, 1601, 492
 C 1610 487, 1618, 488, 1624, 485
 C 1641 485, 1654, 480, 1669, 482
 C 1681 474, 1696, 479, 1706, 472
 C 1826 453, 1944, 436, 2060, 415
 C 2070 414, 2073, 408, 2079, 404
 C 2085 403, 2088, 405, 2091, 406
 C 2093 408, 2095, 408, 2094, 409
 C 2075 424, 2077, 433, 2056, 444
 C 2053 455, 2052, 463, 2050, 472
 C 2054 469, 2051, 463, 2056, 461
 C 2080 446, 2102, 432, 2125, 421
 C 2133 418, 2140, 416, 2146, 414
 C 2155 417, 2162, 410, 2169, 414
 C 2132 442, 2086, 455, 2049, 483
 C 2046 485, 2048, 489, 2049, 490
 C 2052 493, 2054, 494, 2057, 493
 C 2114 465, 2168, 435, 2224, 409
 C 2239 405, 2247, 417, 2261, 413
 C 2277 413, 2294, 415, 2308, 412
 C 2315 412, 2319, 409, 2322, 407
 C 2346 390, 2368, 370, 2385, 348
 C 2402 343, 2419, 342, 2434, 340
 C 2442 339, 2447, 337, 2452, 334
 C 2469 318, 2485, 301, 2499, 285
 C 2500 281, 2500, 279, 2499, 276
 C 2497 273, 2496, 272, 2494, 272
 C 2470 289, 2459, 306, 2441, 322
 C 2423 326, 2406, 326, 2391, 329
 C 2384 330, 2379, 330, 2376, 327
 C 2361 335, 2351, 352, 2336, 355
 C 2326 356, 2318, 353, 2311, 350
 C 2297 349, 2287, 348, 2275, 349
 C 2271 347, 2270, 344, 2269, 343
 C 2266 332, 2265, 323, 2262, 315
 C 2278 308, 2297, 313, 2312, 309
 C 2317 310, 2317, 306, 2319, 306
 C 2322 303, 2321, 300, 2322, 299
 C 2305 274, 2283, 255, 2267, 232
 C 2261 222, 2261, 212, 2255, 204
 C 2246 204, 2243, 216, 2235, 217
 C 2234 204, 2231, 192, 2228, 182
 C 2226 236, 2226, 292, 2229, 345
 C 2225 350, 2223, 352, 2219, 351
 C 2185 353, 2155, 347, 2121, 351
 C 2110 351, 2105, 343, 2098, 341
 C 2100 345, 2104, 346, 2107, 349
 C 2108 354, 2108, 356, 2105, 357
 C 2093 360, 2083, 351, 2074, 350
 L 2072 349
 L 2074 349 C 2075 351, 2077, 353, 2079, 354
 C 2108 364, 2137, 367, 2165, 373
 C 2157 377, 2150, 378, 2142, 377
 C 2127 377, 2113, 380, 2101, 374
 C 2093 373, 2087, 371, 2082, 368
 C 2074 361, 2070, 356, 2066, 349
 C 2067 342, 2069, 339, 2071, 335
 C 2078 333, 2082, 331, 2088, 332
 C 2089 318, 2082, 308, 2080, 296
 C 2078 284, 2078, 274, 2079, 264
 C 2081 252, 2083, 242, 2085, 233
 C 2091 216, 2092, 201, 2101, 188
 C 2098 185, 2097, 185, 2096, 185
 C 2092 188, 2093, 193, 2089, 194
 C 2073 184, 2055, 182, 2040, 173
 C 2039 184, 2048, 190, 2050, 199
 C 2052 208, 2052, 215, 2052, 223
 C 2050 232, 2047, 237, 2045, 244
 C 2036 258, 2027, 270, 2014, 279
 C 1998 292, 1982, 300, 1965, 307
 C 1963 321, 1966, 333, 1964, 346
 C 1962 349, 1961, 350, 1960, 352
 C 1952 354, 1945, 353, 1940, 354
 C 1933 348, 1924, 352, 1919, 347
 C 1917 304, 1920, 259, 1918, 217
 C 1932 213, 1947, 213, 1960, 214
 C 1964 219, 1965, 223, 1965, 227
 C 1964 239, 1960, 249, 1963, 260
 C 1976 250, 1990, 244, 2002, 234
 C 2006 228, 2007, 224, 2006, 218
 C 2005 213, 2004, 211, 2002, 208
 C 1997 206, 1994, 204, 1990, 205
 C 1962 204, 1938, 203, 1911, 205
 C 1910 194, 1915, 187, 1915, 178
 C 1907 187, 1901, 200, 1892, 209
 C 1888 201, 1884, 194, 1880, 187
 C 1879 241, 1879, 295, 1882, 348
 C 1878 351, 1877, 353, 1874, 352
 C 1868 354, 1863, 354, 1858, 353
 C 1850 349, 1842, 350, 1835, 347
 C 1835 309, 1833, 269, 1836, 237
 C 1832 235, 1830, 237, 1829, 238
 C 1818 255, 1808, 270, 1797, 283
 C 1783 270, 1774, 251, 1761, 237
 C 1755 255, 1757, 274, 1756, 291
 C 1758 310, 1760, 327, 1758, 346
 C 1756 351, 1752, 354, 1748, 353
 C 1735 349, 1722, 351, 1711, 347
 C 1710 291, 1710, 238, 1710, 184
 C 1708 182, 1706, 182, 1704, 185
 C 1699 194, 1695, 202, 1688, 207
 C 1686 202, 1682, 196, 1678, 193
 C 1676 183, 1680, 177, 1679, 170
 C 1661 206, 1643, 241, 1627, 275
 C 1627 300, 1625, 327, 1629, 349
 C 1620 361, 1608, 365, 1599, 374
 C 1594 376, 1591, 375, 1588, 376
 C 1583 366, 1579, 358, 1580, 348
 C 1581 324, 1580, 299, 1580, 275
 C 1566 245, 1552, 217, 1539, 188
 C 1534 183, 1533, 175, 1526, 174
 C 1518 188, 1516, 204, 1512, 219
 C 1510 231, 1509, 243, 1510, 251
 C 1506 256, 1506, 254, 1505, 258
 C 1495 256, 1486, 259, 1478, 259
 C 1475 258, 1473, 258, 1471, 257
 C 1465 246, 1465, 235, 1461, 227
 C 1460 218, 1459, 212, 1460, 204
 C 1455 197, 1452, 193, 1452, 186
 C 1449 225, 1451, 265, 1450, 304
 C 1451 308, 1453, 310, 1454, 310
 C 1475 311, 1493, 310, 1511, 311
 C 1512 323, 1507, 334, 1505, 345
 C 1489 348, 1477, 351, 1464, 354
 C 1441 355, 1425, 348, 1405, 348
 C 1404 291, 1405, 237, 1404, 183
 C 1394 198, 1395, 216, 1390, 231
 C 1379 221, 1381, 206, 1372, 199
 C 1376 205, 1376, 213, 1375, 222
 C 1375 239, 1376, 254, 1374, 269
 C 1369 284, 1366, 298, 1360, 310
 C 1351 325, 1341, 336, 1328, 348
 C 1321 354, 1314, 356, 1308, 361
 C 1302 361, 1298, 361, 1294, 361
 C 1279 357, 1267, 351, 1256, 342
 C 1250 335, 1245, 329, 1241, 323
 C 1235 313, 1231, 305, 1227, 296
 C 1220 282, 1216, 268, 1214, 254
 C 1214 241, 1214, 231, 1214, 221
 C 1215 212, 1217, 206, 1219, 200
 C 1210 216, 1206, 235, 1197, 251
 C 1193 255, 1193, 255, 1190, 259
 C 1185 260, 1181, 260, 1178, 258
 C 1175 253, 1171, 253, 1169, 249
 C 1164 238, 1157, 231, 1157, 220
 C 1152 217, 1148, 220, 1147, 216
 C 1140 216, 1136, 216, 1132, 217
 C 1131 221, 1129, 224, 1132, 226
 C 1136 229, 1141, 226, 1144, 229
 C 1148 233, 1146, 238, 1147, 241
 C 1143 250, 1133, 244, 1130, 248
 C 1129 270, 1130, 289, 1130, 309
 C 1129 312, 1127, 312, 1126, 313
 C 1119 316, 1111, 317, 1106, 314
 C 1105 291, 1106, 270, 1106, 250
 C 1104 245, 1100, 246, 1100, 244
 C 1098 238, 1101, 231, 1099, 229
 C 1092 231, 1090, 242, 1083, 238
 C 1087 248, 1085, 258, 1086, 267
 C 1084 279, 1080, 288, 1076, 297
 C 1072 303, 1068, 307, 1063, 311
 C 1054 316, 1047, 323, 1037, 321
 C 1030 319, 1025, 315, 1021, 310
 C 1004 290, 1007, 263, 994, 245
 C 992 247, 990, 249, 991, 253
 C 979 247, 973, 255, 967, 253
 C 965 248, 960, 248, 958, 246
 C 948 225, 939, 206, 934, 185
 C 934 180, 931, 180, 930, 179
 C 929 189, 934, 195, 932, 204
 C 917 206, 903, 205, 890, 206
 C 884 208, 880, 210, 878, 213
 C 877 223, 884, 228, 887, 234
 C 903 251, 916, 266, 930, 281
 C 935 289, 938, 296, 940, 302
 C 941 312, 941, 320, 937, 326
 C 932 337, 924, 343, 920, 352
 C 917 355, 915, 357, 912, 356
 C 886 357, 864, 352, 840, 351
 C 837 338, 832, 329, 832, 318
 C 851 314, 869, 318, 884, 313
 C 891 312, 891, 306, 890, 302
 C 874 281, 858, 260, 842, 243
 C 835 233, 829, 225, 827, 216
 C 820 217, 822, 223, 816, 225
 C 813 224, 810, 222, 808, 220
 C 805 212, 802, 206, 801, 198
 C 796 191, 795, 184, 791, 179
 C 791 186, 792, 193, 793, 199
 C 792 202, 790, 204, 789, 205
 C 766 207, 748, 206, 727, 205
 C 724 208, 722, 208, 723, 211
 C 721 220, 722, 228, 722, 236
 C 724 238, 724, 240, 726, 240
 C 748 240, 769, 237, 788, 234
 C 786 250, 782, 262, 778, 274
 C 760 276, 743, 275, 727, 276
 C 723 276, 722, 277, 722, 278
 C 722 291, 721, 302, 722, 312
 C 747 316, 772, 313, 796, 315
 C 799 323, 796, 328, 795, 332
 C 792 339, 793, 346, 789, 350
 C 758 354, 730, 356, 700, 353
 C 692 352, 686, 352, 680, 349
 C 677 298, 680, 250, 678, 203
 C 676 201, 676, 199, 674, 198
 C 668 200, 669, 209, 662, 209
 C 659 204, 656, 200, 654, 196
 C 648 199, 646, 201, 644, 205
 C 629 206, 617, 206, 605, 205
 C 600 206, 600, 208, 599, 210
 C 595 256, 597, 305, 601, 349
 C 598 352, 598, 354, 597, 354
 C 589 355, 583, 355, 578, 355
 C 569 352, 561, 353, 556, 348
 C 555 301, 556, 254, 555, 211
 C 554 208, 552, 206, 551, 206
 C 535 205, 520, 209, 507, 205
 C 504 200, 507, 198, 507, 196
 C 505 193, 502, 191, 503, 188
 C 506 180, 510, 174, 511, 167" fill="rgb(93,38,53)" />
<path  d="
 M 1209 58 C 1125 61, 1037, 68, 953, 69
 C 929 71, 910, 77, 890, 80
 C 809 97, 732, 116, 653, 132
 C 634 137, 622, 152, 607, 162
 C 575 161, 542, 168, 513, 166
 C 513 176, 498, 186, 507, 194
 C 514 189, 512, 182, 514, 177
 C 517 174, 518, 172, 521, 173
 C 560 171, 593, 171, 632, 172
 C 636 172, 638, 175, 639, 176
 C 643 185, 643, 193, 645, 200
 C 649 199, 650, 196, 653, 196
 C 659 199, 659, 208, 664, 208
 C 668 204, 668, 201, 670, 198
 C 674 195, 675, 200, 677, 199
 C 681 194, 679, 186, 680, 180
 C 680 174, 682, 173, 684, 172
 C 718 171, 750, 171, 782, 171
 C 788 176, 788, 179, 793, 179
 C 800 193, 804, 206, 807, 219
 C 810 222, 813, 223, 816, 224
 C 821 221, 820, 216, 826, 214
 C 827 205, 829, 198, 832, 191
 C 836 185, 840, 181, 845, 178
 C 853 172, 862, 172, 870, 171
 C 887 173, 904, 171, 919, 172
 C 927 174, 928, 180, 934, 180
 C 938 202, 947, 219, 954, 237
 C 955 247, 963, 246, 966, 251
 C 973 254, 979, 246, 988, 253
 C 990 249, 991, 246, 992, 243
 C 999 247, 997, 255, 1001, 258
 C 1004 252, 1005, 246, 1008, 241
 C 1015 233, 1023, 231, 1030, 228
 C 1041 227, 1049, 227, 1057, 227
 C 1069 228, 1077, 240, 1085, 238
 C 1092 228, 1100, 230, 1107, 225
 C 1109 215, 1109, 207, 1115, 202
 C 1122 198, 1128, 196, 1134, 195
 C 1139 196, 1141, 199, 1143, 200
 C 1146 206, 1147, 210, 1147, 214
 C 1150 218, 1154, 217, 1157, 219
 C 1158 231, 1166, 238, 1168, 248
 C 1172 252, 1175, 253, 1176, 257
 C 1181 259, 1185, 259, 1188, 257
 C 1192 255, 1191, 253, 1196, 254
 C 1204 236, 1209, 219, 1215, 202
 C 1222 194, 1228, 187, 1236, 183
 C 1244 177, 1250, 173, 1257, 170
 C 1271 167, 1282, 166, 1294, 165
 C 1312 166, 1330, 165, 1343, 173
 C 1358 179, 1368, 190, 1375, 201
 C 1381 211, 1382, 221, 1386, 230
 C 1393 216, 1393, 201, 1399, 189
 C 1401 185, 1402, 180, 1405, 183
 C 1407 180, 1407, 175, 1409, 171
 C 1421 167, 1433, 169, 1443, 168
 C 1453 179, 1451, 193, 1460, 202
 C 1459 221, 1465, 235, 1469, 249
 C 1469 253, 1472, 254, 1472, 256
 C 1482 261, 1493, 254, 1503, 257
 C 1504 253, 1506, 255, 1508, 254
 C 1508 243, 1509, 231, 1510, 221
 C 1516 204, 1517, 187, 1524, 173
 C 1532 174, 1535, 180, 1537, 184
 C 1539 181, 1535, 177, 1534, 174
 C 1536 171, 1533, 169, 1535, 168
 C 1550 168, 1564, 167, 1577, 168
 C 1584 177, 1587, 185, 1593, 192
 C 1597 199, 1600, 205, 1601, 211
 C 1605 211, 1606, 210, 1608, 209
 C 1616 194, 1621, 180, 1630, 168
 C 1647 167, 1662, 168, 1675, 166
 C 1677 170, 1678, 169, 1680, 170
 C 1679 178, 1678, 184, 1679, 191
 C 1683 196, 1687, 201, 1687, 207
 C 1698 193, 1708, 182, 1716, 171
 C 1727 167, 1738, 169, 1747, 168
 C 1758 172, 1762, 183, 1771, 186
 C 1780 197, 1787, 208, 1795, 215
 C 1811 200, 1826, 182, 1840, 168
 C 1852 169, 1863, 168, 1874, 168
 C 1875 184, 1887, 194, 1890, 207
 C 1902 198, 1908, 180, 1921, 169
 C 1949 167, 1977, 169, 2004, 168
 C 2020 171, 2031, 176, 2041, 185
 C 2037 181, 2037, 177, 2038, 173
 C 2027 170, 2019, 167, 2010, 164
 C 1981 166, 1956, 158, 1928, 162
 C 1912 156, 1903, 143, 1890, 137
 C 1882 135, 1877, 131, 1871, 129
 C 1785 111, 1703, 91, 1619, 74
 C 1533 67, 1447, 64, 1364, 58
 C 1347 61, 1332, 56, 1316, 58
 C 1299 59, 1287, 68, 1272, 70
 C 1263 68, 1261, 73, 1255, 70
 C 1256 68, 1257, 68, 1259, 69
 C 1251 68, 1246, 64, 1240, 61
 C 1228 60, 1220, 57, 1210, 57" fill="rgb(148,106,171)" />
<path  d="
 M 977 373 M 976 374 M 975 374
 L 973 374 C 967 385, 962, 396, 953, 406
 C 941 413, 932, 419, 921, 421
 C 897 421, 877, 424, 856, 421
 C 840 419, 838, 400, 826, 397
 C 823 404, 819, 408, 816, 413
 C 812 417, 809, 419, 806, 421
 C 762 420, 723, 425, 689, 429
 C 677 422, 666, 422, 657, 419
 C 663 413, 674, 419, 683, 416
 C 675 404, 664, 395, 659, 383
 C 655 377, 650, 378, 646, 376
 C 641 385, 634, 394, 632, 406
 C 638 413, 648, 411, 654, 414
 C 725 440, 954, 477, 1095, 505
 C 1113 501, 1123, 505, 1134, 506
 C 1141 506, 1142, 502, 1146, 499
 C 1151 498, 1155, 498, 1158, 498
 C 1193 508, 1228, 513, 1261, 522
 L 1263 522 L 1264 523 L 1266 525
 L 1267 527 C 1305 514, 1349, 509, 1388, 497
 C 1393 498, 1396, 500, 1397, 504
 C 1411 510, 1424, 499, 1436, 507
 C 1596 477, 1755, 447, 1913, 417
 C 1904 417, 1896, 418, 1886, 417
 C 1874 421, 1863, 424, 1852, 426
 C 1842 427, 1834, 427, 1825, 427
 C 1820 426, 1825, 425, 1825, 424
 C 1818 419, 1811, 418, 1806, 413
 C 1802 404, 1801, 396, 1793, 391
 C 1788 390, 1784, 390, 1782, 386
 C 1772 394, 1761, 405, 1754, 415
 C 1747 419, 1743, 421, 1738, 422
 C 1722 421, 1710, 425, 1699, 421
 C 1689 417, 1681, 407, 1676, 400
 C 1669 395, 1659, 401, 1651, 398
 C 1640 403, 1632, 413, 1624, 422
 C 1609 430, 1596, 438, 1582, 442
 C 1574 441, 1569, 437, 1567, 432
 C 1560 421, 1558, 408, 1551, 399
 C 1539 400, 1533, 398, 1523, 399
 C 1513 407, 1506, 417, 1495, 421
 C 1465 422, 1437, 422, 1411, 420
 C 1403 420, 1400, 416, 1395, 414
 C 1389 406, 1386, 400, 1386, 393
 C 1382 389, 1380, 386, 1377, 383
 C 1359 394, 1346, 408, 1329, 414
 C 1322 418, 1315, 419, 1310, 421
 C 1299 422, 1290, 421, 1281, 421
 C 1269 419, 1260, 413, 1250, 409
 C 1236 399, 1224, 385, 1211, 380
 C 1191 374, 1178, 376, 1160, 375
 C 1150 380, 1145, 390, 1134, 392
 C 1124 392, 1115, 394, 1108, 391
 C 1100 388, 1097, 381, 1089, 383
 C 1079 386, 1071, 392, 1062, 393
 C 1054 394, 1048, 394, 1043, 394
 C 1025 389, 1010, 378, 995, 373
 C 988 374, 984, 374, 979, 372" fill="rgb(131,83,164)" />
<path  d="
 M 1244 20 C 1150 20, 1062, 23, 968, 25
 C 952 24, 941, 30, 928, 29
 C 864 43, 802, 55, 740, 69
 C 745 71, 751, 71, 758, 71
 C 769 66, 780, 67, 789, 61
 C 808 61, 822, 56, 837, 55
 C 853 50, 867, 48, 881, 45
 C 890 45, 898, 44, 905, 45
 C 839 64, 773, 74, 710, 91
 C 678 132, 875, 74, 932, 73
 C 1030 67, 1120, 60, 1208, 57
 C 1219 56, 1228, 59, 1237, 60
 C 1248 65, 1257, 67, 1266, 70
 C 1285 68, 1298, 59, 1315, 58
 C 1410 59, 1501, 67, 1597, 69
 C 1682 87, 1767, 99, 1851, 116
 C 1851 109, 1845, 107, 1842, 104
 C 1830 96, 1822, 89, 1812, 86
 C 1788 79, 1766, 75, 1744, 72
 C 1732 67, 1720, 69, 1712, 62
 C 1694 63, 1682, 56, 1667, 57
 C 1658 50, 1646, 52, 1638, 46
 C 1641 44, 1647, 45, 1652, 44
 C 1695 55, 1738, 59, 1778, 70
 C 1786 71, 1791, 71, 1796, 71
 C 1735 54, 1674, 43, 1614, 30
 C 1598 30, 1587, 24, 1572, 26
 C 1476 25, 1385, 19, 1294, 20
 C 1307 24, 1348, 22, 1374, 23
 C 1383 25, 1388, 28, 1395, 28
 L 1397 30 L 1396 31 L 1395 31
 L 1392 32 C 1312 30, 1223, 31, 1140, 32
 C 1140 27, 1146, 30, 1147, 26
 C 1150 26, 1151, 29, 1152, 29
 C 1156 26, 1156, 23, 1159, 23
 C 1191 22, 1225, 24, 1257, 21
 C 1252 20, 1249, 21, 1245, 19" fill="rgb(210,189,85)" />
<path  d="
 M 1294 166 C 1273 168, 1253, 169, 1238, 183
 C 1230 188, 1223, 192, 1220, 198
 C 1217 206, 1216, 212, 1215, 218
 C 1214 238, 1214, 256, 1219, 271
 C 1224 288, 1229, 301, 1237, 314
 C 1242 325, 1248, 332, 1255, 340
 C 1266 349, 1276, 354, 1288, 358
 C 1294 361, 1300, 361, 1306, 360
 C 1321 352, 1335, 343, 1345, 329
 C 1353 320, 1359, 310, 1364, 300
 C 1367 289, 1370, 280, 1373, 272
 C 1374 249, 1376, 229, 1374, 209
 C 1371 198, 1367, 190, 1359, 184
 C 1351 176, 1343, 173, 1335, 171
 C 1321 168, 1309, 166, 1295, 167" fill="rgb(206,159,27)" />
<path  d="
 M 2048 392 C 2046 393, 2043, 392, 2042, 393
 C 2008 402, 1973, 403, 1943, 414
 C 1772 443, 1606, 477, 1437, 506
 C 1423 507, 1409, 510, 1399, 511
 C 1396 507, 1399, 504, 1394, 500
 C 1390 498, 1386, 501, 1382, 499
 C 1348 511, 1312, 514, 1280, 524
 C 1276 525, 1277, 527, 1276, 528
 C 1316 523, 1355, 515, 1391, 509
 C 1395 509, 1395, 511, 1396, 511
 C 1382 513, 1371, 519, 1357, 517
 C 1330 526, 1302, 529, 1276, 539
 C 1244 532, 1215, 525, 1184, 521
 C 1191 517, 1198, 518, 1204, 517
 C 1224 524, 1243, 526, 1261, 529
 L 1262 529 L 1264 530 L 1265 529
 L 1266 527 C 1263 526, 1266, 524, 1263, 523
 C 1228 514, 1193, 509, 1160, 501
 C 1155 499, 1151, 499, 1147, 499
 C 1144 502, 1142, 504, 1143, 507
 C 1155 511, 1167, 509, 1177, 515
 L 1179 515 L 1181 515 L 1182 517
 L 1180 518 C 1175 518, 1171, 518, 1167, 518
 C 986 488, 810, 452, 633, 420
 C 615 418, 601, 417, 583, 416
 C 573 411, 565, 407, 555, 406
 C 538 403, 525, 397, 509, 397
 C 505 398, 505, 401, 504, 402
 C 505 407, 506, 408, 507, 409
 C 670 439, 831, 470, 994, 495
 L 997 496 L 998 496 L 998 498
 L 995 498 C 989 499, 982, 500, 974, 499
 C 982 506, 993, 501, 999, 508
 C 1009 509, 1015, 510, 1023, 509
 C 1025 509, 1028, 507, 1025, 507
 C 1014 506, 1005, 505, 998, 500
 C 1003 498, 1012, 499, 1019, 498
 C 1042 503, 1062, 508, 1082, 511
 C 1082 515, 1076, 514, 1073, 516
 C 1072 521, 1077, 521, 1080, 522
 C 1147 529, 1209, 543, 1274, 550
 C 1339 542, 1399, 528, 1463, 523
 C 1468 522, 1470, 519, 1467, 517
 C 1463 514, 1458, 515, 1454, 513
 C 1650 478, 1844, 444, 2038, 410
 C 2050 408, 2060, 407, 2068, 404
 C 2083 400, 2073, 393, 2065, 392
 C 2059 392, 2054, 392, 2049, 391" fill="rgb(199,173,56)" />
<path  d="
 M 1842 169 M 1841 170
 L 1838 170 C 1826 186, 1809, 201, 1798, 217
 C 1793 219, 1792, 218, 1791, 216
 C 1778 200, 1768, 184, 1753, 172
 C 1743 168, 1731, 171, 1722, 169
 C 1717 170, 1716, 172, 1715, 174
 C 1710 230, 1712, 289, 1711, 345
 C 1724 349, 1735, 348, 1745, 352
 C 1751 353, 1755, 351, 1757, 348
 C 1756 310, 1754, 279, 1756, 242
 C 1756 239, 1758, 239, 1758, 237
 C 1774 250, 1784, 269, 1795, 283
 C 1810 267, 1819, 250, 1831, 235
 C 1836 236, 1837, 239, 1836, 241
 C 1834 276, 1836, 311, 1835, 344
 C 1843 348, 1850, 349, 1856, 352
 C 1865 352, 1873, 354, 1879, 350
 C 1878 295, 1878, 241, 1879, 186
 C 1883 160, 1856, 173, 1844, 168" fill="rgb(246,205,21)" />
<path  d="
 M 434 173 C 429 174, 423, 173, 419, 174
 C 411 174, 408, 177, 404, 179
 C 397 180, 394, 177, 389, 177
 C 385 177, 386, 178, 385, 180
 C 388 180, 389, 182, 390, 184
 C 383 185, 380, 178, 371, 183
 C 355 187, 342, 196, 327, 199
 C 324 208, 331, 214, 331, 221
 C 339 224, 343, 218, 349, 218
 C 345 226, 343, 235, 340, 242
 C 335 260, 334, 276, 333, 293
 C 334 307, 337, 317, 338, 329
 C 345 344, 349, 358, 357, 371
 C 364 375, 367, 368, 372, 368
 C 381 363, 391, 361, 395, 354
 C 390 338, 379, 326, 376, 311
 C 376 304, 374, 301, 375, 296
 C 375 293, 378, 291, 379, 292
 C 399 290, 414, 292, 430, 291
 L 432 292 L 433 293 L 435 295
 L 436 296 C 435 314, 436, 331, 437, 348
 C 449 350, 457, 351, 468, 353
 C 473 354, 476, 353, 479, 352
 C 473 309, 479, 263, 476, 221
 C 462 219, 450, 219, 440, 221
 C 435 230, 437, 241, 436, 250
 C 436 255, 433, 255, 432, 256
 C 415 254, 401, 256, 387, 257
 C 383 256, 383, 254, 381, 253
 C 381 246, 384, 242, 385, 236
 C 392 228, 398, 219, 406, 214
 C 416 210, 424, 208, 432, 206
 C 449 203, 465, 205, 480, 204
 C 481 200, 481, 197, 482, 195
 C 481 166, 453, 172, 435, 173" fill="rgb(245,199,20)" />
<path  d="
 M 2300 169 C 2298 170, 2295, 169, 2294, 170
 C 2285 172, 2280, 175, 2276, 181
 C 2265 190, 2262, 201, 2261, 212
 C 2262 220, 2265, 225, 2267, 230
 C 2284 255, 2306, 274, 2322, 296
 C 2322 300, 2323, 303, 2322, 305
 C 2318 307, 2317, 310, 2315, 310
 C 2297 313, 2279, 310, 2263, 312
 C 2267 325, 2266, 338, 2273, 347
 C 2287 347, 2297, 348, 2308, 349
 C 2318 352, 2326, 355, 2334, 356
 C 2351 351, 2361, 334, 2373, 327
 C 2379 329, 2384, 329, 2389, 328
 C 2406 325, 2423, 325, 2439, 322
 C 2459 302, 2477, 284, 2497, 265
 C 2474 269, 2450, 267, 2426, 267
 C 2398 268, 2372, 259, 2348, 258
 C 2334 246, 2324, 232, 2312, 221
 C 2308 217, 2310, 213, 2309, 211
 C 2312 205, 2316, 204, 2318, 203
 C 2335 202, 2348, 201, 2362, 203
 C 2364 195, 2362, 190, 2361, 186
 C 2357 180, 2358, 172, 2353, 170
 C 2334 169, 2317, 170, 2301, 169" fill="rgb(232,188,37)" />
<path  d="
 M 2212 169 C 2205 171, 2196, 168, 2190, 171
 C 2187 180, 2183, 186, 2185, 195
 C 2184 231, 2183, 266, 2183, 300
 C 2183 305, 2181, 307, 2179, 308
 C 2176 311, 2173, 310, 2172, 311
 C 2160 310, 2150, 312, 2142, 307
 C 2138 303, 2134, 299, 2132, 297
 C 2128 288, 2124, 282, 2124, 275
 C 2124 258, 2128, 245, 2130, 232
 C 2132 220, 2136, 212, 2140, 204
 C 2142 198, 2144, 195, 2148, 193
 C 2152 191, 2154, 191, 2156, 191
 C 2160 191, 2161, 188, 2163, 188
 C 2157 180, 2151, 186, 2149, 187
 C 2149 181, 2152, 177, 2150, 172
 C 2140 168, 2128, 170, 2118, 169
 C 2113 171, 2112, 173, 2110, 174
 C 2105 184, 2100, 190, 2096, 199
 C 2090 221, 2082, 240, 2080, 262
 C 2079 274, 2079, 284, 2081, 293
 C 2083 308, 2090, 318, 2090, 330
 C 2083 332, 2078, 333, 2074, 336
 C 2070 340, 2068, 342, 2069, 347
 C 2081 351, 2090, 356, 2101, 359
 C 2107 357, 2107, 354, 2106, 352
 C 2102 347, 2099, 344, 2095, 342
 C 2105 342, 2110, 350, 2120, 349
 C 2155 346, 2185, 352, 2217, 352
 C 2222 351, 2225, 350, 2227, 348
 C 2225 292, 2225, 235, 2227, 180
 C 2230 169, 2221, 167, 2213, 169" fill="rgb(243,192,18)" />
<path  d="
 M 223 173 C 218 174, 211, 173, 207, 175
 C 190 180, 176, 189, 168, 203
 C 162 212, 158, 219, 159, 229
 C 158 244, 159, 255, 156, 267
 C 163 277, 164, 287, 171, 294
 C 180 307, 188, 318, 198, 328
 C 207 336, 215, 342, 224, 345
 C 232 348, 239, 350, 245, 351
 C 265 349, 284, 352, 302, 350
 C 308 309, 301, 268, 307, 229
 C 285 229, 266, 226, 247, 231
 C 244 241, 247, 251, 247, 259
 C 253 266, 261, 260, 264, 268
 C 266 285, 265, 300, 263, 314
 C 255 315, 251, 313, 247, 312
 C 239 309, 233, 306, 228, 303
 C 219 295, 213, 287, 209, 278
 C 206 271, 203, 266, 202, 260
 C 202 251, 202, 244, 202, 238
 C 204 229, 206, 222, 210, 216
 C 219 209, 227, 207, 235, 206
 C 258 205, 280, 205, 299, 206
 L 301 204 L 303 205 L 304 204
 L 303 201 C 302 195, 302, 188, 299, 183
 C 295 179, 293, 173, 287, 173
 C 265 172, 245, 172, 224, 172" fill="rgb(246,198,22)" />
<path  d="
 M 1930 169 C 1928 170, 1925, 169, 1924, 170
 C 1920 170, 1920, 172, 1918, 172
 C 1915 184, 1912, 193, 1910, 202
 C 1938 202, 1962, 203, 1988, 203
 C 1994 203, 1997, 205, 2000, 206
 C 2004 210, 2006, 213, 2007, 216
 C 2008 224, 2007, 228, 2004, 232
 C 1995 241, 1986, 246, 1981, 256
 C 1975 259, 1971, 262, 1965, 261
 C 1957 246, 1969, 233, 1962, 219
 C 1949 213, 1934, 215, 1920, 215
 C 1920 257, 1919, 299, 1919, 338
 C 1920 342, 1918, 346, 1922, 347
 C 1935 349, 1945, 356, 1958, 351
 C 1960 349, 1961, 348, 1962, 347
 C 1965 333, 1962, 321, 1963, 309
 C 1981 299, 1997, 291, 2013, 280
 C 2026 270, 2035, 257, 2042, 245
 C 2046 237, 2049, 232, 2050, 225
 C 2051 215, 2051, 208, 2051, 201
 C 2048 194, 2046, 190, 2043, 186
 C 2031 177, 2019, 172, 2007, 170
 C 1985 169, 1965, 169, 1945, 169
 C 1940 169, 1935, 168, 1931, 168" fill="rgb(246,203,20)" />
<path  d="
 M 682 170 C 677 227, 681, 288, 679, 347
 C 695 353, 712, 353, 728, 352
 C 750 355, 767, 349, 787, 350
 C 792 342, 794, 334, 796, 327
 C 797 321, 797, 319, 794, 317
 C 771 316, 749, 315, 728, 316
 C 724 314, 721, 313, 722, 310
 C 721 299, 720, 288, 721, 278
 C 739 273, 758, 276, 776, 274
 C 780 262, 785, 253, 786, 243
 C 785 239, 781, 238, 778, 239
 C 760 240, 741, 240, 725, 242
 L 723 239 L 722 238 L 722 238
 L 720 235 C 721 227, 719, 217, 721, 209
 C 723 205, 725, 208, 725, 205
 C 748 205, 768, 206, 789, 204
 C 793 202, 790, 200, 792, 199
 C 791 190, 790, 183, 787, 176
 C 754 172, 720, 173, 688, 172" fill="rgb(247,196,19)" />
<path  d="
 M 1667 168 C 1655 169, 1642, 168, 1630, 169
 C 1619 186, 1614, 205, 1604, 220
 C 1593 203, 1590, 185, 1578, 171
 C 1564 168, 1547, 168, 1535, 169
 C 1545 206, 1566, 240, 1581, 273
 C 1581 300, 1582, 326, 1581, 350
 C 1582 360, 1583, 367, 1586, 373
 C 1591 374, 1594, 375, 1596, 373
 C 1608 364, 1620, 360, 1628, 350
 C 1624 327, 1626, 300, 1625, 278
 C 1639 240, 1671, 196, 1675, 164" fill="rgb(246,205,23)" />
<path  d="
 M 872 172 C 857 172, 842, 175, 835, 190
 C 830 199, 826, 208, 829, 218
 C 832 227, 836, 234, 841, 241
 C 859 259, 874, 280, 889, 296
 C 892 301, 891, 304, 892, 307
 C 890 316, 882, 314, 878, 316
 C 862 317, 848, 316, 834, 317
 C 833 329, 838, 337, 840, 346
 C 857 352, 876, 353, 893, 356
 C 902 356, 909, 358, 914, 355
 C 921 345, 930, 337, 936, 329
 C 940 319, 940, 309, 939, 301
 C 935 292, 932, 285, 927, 279
 C 911 262, 898, 247, 884, 232
 C 881 225, 876, 221, 877, 215
 C 879 209, 884, 207, 887, 205
 C 903 204, 917, 205, 931, 204
 C 933 194, 927, 188, 927, 180
 C 926 176, 924, 173, 922, 174
 C 904 172, 888, 174, 874, 171" fill="rgb(246,198,20)" />
<path  d="
 M 1788 34 C 1786 38, 1791, 40, 1792, 43
 C 1838 76, 1884, 110, 1925, 144
 C 1938 140, 1953, 141, 1964, 144
 C 2006 160, 2046, 176, 2087, 190
 C 2098 186, 2099, 176, 2106, 168
 C 2107 164, 2106, 163, 2104, 162
 C 1997 121, 1895, 74, 1789, 35" fill="rgb(203,176,51)" />
<path  d="
 M 564 173 C 536 170, 506, 168, 508, 205
 C 522 207, 535, 204, 548, 204
 C 554 207, 556, 210, 555, 213
 C 557 258, 556, 302, 557, 345
 C 562 352, 569, 351, 575, 353
 C 583 354, 589, 354, 595, 354
 L 596 352 L 598 353 L 599 352
 L 600 349 C 597 306, 594, 260, 596, 215
 C 596 210, 599, 206, 602, 205
 C 617 205, 629, 205, 642, 205
 C 644 195, 641, 186, 639, 179
 C 638 175, 635, 173, 634, 174
 C 609 173, 586, 171, 565, 172" fill="rgb(248,205,24)" />
<path  d="
 M 1414 170 C 1408 170, 1409, 178, 1406, 181
 C 1406 237, 1405, 291, 1405, 344
 C 1426 346, 1441, 354, 1462, 351
 C 1476 352, 1486, 346, 1500, 348
 C 1507 337, 1510, 325, 1512, 313
 C 1493 311, 1475, 312, 1457, 311
 C 1453 310, 1451, 308, 1450, 307
 C 1449 261, 1451, 214, 1449, 172
 C 1437 169, 1426, 170, 1416, 169" fill="rgb(244,196,20)" />
<path  d="
 M 742 34 C 631 75, 524, 124, 414, 166
 C 434 168, 454, 171, 474, 169
 C 481 169, 481, 174, 483, 176
 C 511 167, 534, 154, 561, 146
 C 569 143, 575, 142, 582, 141
 C 590 141, 596, 142, 601, 145
 C 649 106, 701, 71, 748, 33" fill="rgb(204,176,54)" />
<path  d="
 M 759 36 C 742 43, 726, 51, 712, 63
 C 672 90, 641, 116, 606, 144
 C 592 141, 579, 141, 567, 145
 C 550 152, 534, 155, 520, 161
 C 549 165, 577, 160, 604, 161
 C 622 151, 634, 136, 652, 132
 C 715 117, 778, 105, 839, 89
 C 788 97, 735, 107, 683, 117
 C 678 118, 677, 117, 676, 115
 C 684 106, 693, 103, 700, 95
 C 718 84, 737, 86, 753, 78
 C 795 73, 832, 60, 871, 55
 C 887 49, 921, 44, 880, 46
 C 867 49, 853, 51, 840, 56
 C 822 57, 808, 62, 791, 61
 C 780 68, 769, 67, 760, 71
 C 751 71, 745, 71, 739, 71
 C 747 67, 757, 64, 767, 61
 C 793 58, 816, 52, 839, 47
 C 811 48, 785, 58, 756, 59
 C 752 59, 751, 58, 752, 55
 C 753 48, 760, 45, 762, 40
 L 762 37 L 761 36 L 761 36" fill="rgb(102,72,42)" />
<path  d="
 M 1289 201 C 1301 200, 1312, 202, 1322, 207
 C 1329 215, 1332, 222, 1331, 232
 C 1333 252, 1329, 267, 1324, 282
 C 1321 290, 1319, 296, 1315, 301
 C 1309 306, 1305, 311, 1300, 312
 C 1293 312, 1290, 312, 1286, 310
 C 1280 305, 1278, 301, 1275, 297
 C 1268 284, 1263, 273, 1261, 260
 C 1262 247, 1259, 239, 1260, 228
 C 1261 222, 1262, 217, 1264, 213
 C 1268 209, 1270, 207, 1273, 206
 C 1279 203, 1283, 201, 1287, 201" fill="rgb(92,37,44)" />
<path  d="
 M 1780 40 C 1779 42, 1775, 39, 1774, 41
 C 1775 48, 1780, 51, 1782, 54
 C 1778 56, 1777, 58, 1775, 58
 C 1757 60, 1744, 53, 1730, 51
 C 1744 55, 1756, 59, 1770, 61
 C 1781 64, 1790, 66, 1797, 70
 C 1763 69, 1613, 33, 1657, 53
 C 1682 55, 1694, 62, 1710, 60
 C 1720 68, 1732, 66, 1741, 71
 C 1768 73, 1790, 79, 1812, 86
 C 1825 90, 1834, 99, 1844, 104
 C 1848 109, 1853, 110, 1853, 115
 C 1806 109, 1763, 100, 1718, 93
 C 1767 106, 1818, 115, 1869, 127
 C 1877 130, 1882, 134, 1889, 134
 C 1901 142, 1911, 152, 1922, 158
 C 1953 159, 1978, 164, 2008, 164
 C 1992 156, 1977, 149, 1962, 144
 C 1949 141, 1936, 142, 1927, 146
 C 1892 117, 1855, 89, 1820, 64
 C 1806 55, 1795, 46, 1781, 42" fill="rgb(101,72,42)" />
<path  d="
 M 2177 175 C 2170 179, 2167, 186, 2160, 190
 C 2155 194, 2148, 190, 2146, 196
 C 2139 207, 2135, 218, 2131, 229
 C 2129 242, 2126, 253, 2125, 263
 C 2124 272, 2126, 277, 2127, 282
 C 2130 292, 2139, 295, 2141, 304
 C 2144 307, 2147, 308, 2150, 309
 C 2161 309, 2168, 312, 2175, 309
 C 2180 308, 2182, 305, 2181, 303
 C 2183 262, 2181, 222, 2184, 184
 C 2181 180, 2180, 178, 2178, 177" fill="rgb(87,32,27)" />
<path  d="
 M 1291 202 C 1285 203, 1279, 203, 1275, 206
 C 1270 208, 1268, 209, 1267, 212
 C 1263 217, 1262, 222, 1261, 226
 C 1260 239, 1263, 247, 1261, 258
 C 1262 268, 1267, 275, 1269, 283
 C 1272 291, 1273, 296, 1279, 300
 C 1284 304, 1290, 301, 1292, 309
 C 1298 308, 1302, 305, 1306, 304
 C 1313 285, 1328, 274, 1330, 256
 C 1331 247, 1331, 240, 1331, 234
 C 1331 225, 1330, 219, 1327, 214
 C 1323 210, 1322, 208, 1318, 206
 C 1309 203, 1301, 201, 1293, 201" fill="rgb(84,31,41)" />
<path  d="
 M 1032 229 C 1026 229, 1022, 233, 1017, 235
 C 1009 241, 1006, 247, 1004, 254
 C 1005 271, 1008, 285, 1015, 297
 C 1018 302, 1018, 306, 1021, 308
 C 1026 315, 1030, 318, 1035, 320
 C 1047 322, 1054, 315, 1062, 312
 C 1068 307, 1071, 303, 1073, 298
 C 1078 289, 1081, 283, 1083, 275
 C 1085 263, 1086, 250, 1082, 241
 C 1068 228, 1051, 227, 1033, 229" fill="rgb(215,155,17)" />
<path  d="
 M 144 263 C 108 266, 69, 269, 33, 264
 C 48 283, 65, 294, 78, 312
 C 83 316, 87, 319, 90, 321
 C 114 325, 136, 326, 156, 331
 C 173 333, 166, 322, 157, 317
 C 147 314, 138, 314, 129, 311
 C 120 303, 116, 292, 110, 286
 L 108 284 L 108 283 L 110 283
 L 112 281 C 118 285, 127, 285, 134, 283
 C 144 290, 151, 297, 159, 301
 C 155 298, 156, 291, 153, 287
 C 153 278, 150, 272, 153, 266
 C 149 264, 148, 262, 145, 263" fill="rgb(209,187,88)" />
<path  d="
 M 427 383 C 422 383, 414, 387, 415, 394
 C 422 401, 430, 405, 435, 410
 C 442 416, 450, 418, 455, 423
 C 606 447, 754, 470, 903, 492
 C 923 493, 939, 501, 959, 496
 C 816 470, 672, 449, 529, 425
 C 508 422, 489, 420, 471, 418
 C 461 417, 456, 414, 450, 409
 C 443 400, 436, 392, 430, 384" fill="rgb(185,158,42)" />
<path  d="
 M 2080 405 C 2074 408, 2070, 414, 2062, 416
 C 1944 437, 1826, 454, 1709, 474
 C 1696 480, 1681, 475, 1671, 482
 C 1654 481, 1641, 486, 1627, 486
 C 1609 490, 1595, 496, 1578, 495
 C 1599 501, 1616, 494, 1635, 493
 C 1779 471, 1920, 448, 2061, 427
 C 2069 426, 2074, 424, 2079, 422
 C 2090 416, 2101, 404, 2081, 405" fill="rgb(190,161,44)" />
<path  d="
 M 1131 197 C 1125 197, 1121, 199, 1116, 201
 C 1110 208, 1110, 215, 1109, 223
 C 1106 227, 1103, 229, 1101, 230
 C 1100 235, 1101, 239, 1101, 242
 C 1102 245, 1105, 246, 1105, 248
 C 1106 270, 1107, 291, 1107, 312
 C 1113 315, 1119, 315, 1124, 313
 L 1127 313 L 1128 312 L 1128 311
 L 1129 309 C 1128 289, 1129, 270, 1129, 251
 C 1132 242, 1142, 248, 1145, 244
 C 1145 238, 1147, 233, 1145, 230
 C 1140 227, 1132, 231, 1130, 225
 C 1130 221, 1130, 219, 1131, 217
 C 1137 215, 1141, 215, 1144, 214
 C 1145 209, 1145, 206, 1143, 202
 C 1139 198, 1136, 196, 1133, 196" fill="rgb(243,181,20)" />
<path  d="
 M 2362 183 C 2363 188, 2366, 195, 2364, 202
 C 2348 202, 2335, 203, 2321, 204
 C 2316 205, 2312, 206, 2311, 208
 C 2311 213, 2309, 217, 2311, 219
 C 2325 232, 2335, 246, 2346, 257
 C 2355 250, 2367, 247, 2370, 236
 C 2373 222, 2365, 214, 2371, 202
 C 2370 194, 2363, 189, 2364, 182" fill="rgb(93,41,33)" />
<path  d="
 M 2162 414 C 2156 417, 2150, 413, 2145, 416
 C 2128 420, 2115, 428, 2101, 434
 C 2085 444, 2072, 452, 2057, 460
 C 2054 467, 2050, 472, 2048, 478
 L 2050 481 L 2051 482
 L 2053 480 C 2055 476, 2061, 474, 2064, 470
 C 2098 450, 2145, 434, 2169, 412" fill="rgb(185,151,25)" />
<path  d="
 M 1542 499 C 1533 507, 1519, 503, 1510, 509
 C 1501 512, 1494, 512, 1486, 511
 C 1488 514, 1493, 516, 1492, 520
 C 1486 522, 1479, 521, 1474, 522
 C 1480 524, 1486, 525, 1491, 526
 C 1506 532, 1516, 542, 1527, 550
 C 1535 544, 1540, 539, 1540, 532
 C 1539 522, 1530, 519, 1525, 514
 C 1539 506, 1594, 499, 1541, 499" fill="rgb(191,138,65)" />
<path  d="
 M 1043 243 C 1047 241, 1050, 245, 1053, 246
 C 1059 250, 1062, 254, 1061, 260
 C 1062 268, 1061, 277, 1057, 282
 C 1055 289, 1052, 293, 1047, 295
 C 1041 296, 1038, 294, 1036, 290
 C 1032 282, 1029, 277, 1028, 270
 C 1027 262, 1027, 257, 1029, 252
 C 1032 246, 1037, 245, 1041, 243" fill="rgb(127,43,15)" />
<path  d="
 M 1038 248 C 1037 251, 1031, 248, 1030, 253
 C 1028 258, 1029, 263, 1029, 268
 C 1030 277, 1033, 282, 1035, 289
 C 1039 293, 1042, 295, 1046, 294
 C 1052 293, 1054, 288, 1056, 285
 C 1060 277, 1061, 268, 1061, 261
 C 1061 256, 1060, 253, 1058, 250
 C 1051 248, 1046, 247, 1040, 248" fill="rgb(114,36,9)" />
<path  d="
 M 407 428 C 399 450, 463, 460, 477, 480
 C 481 473, 479, 468, 477, 463
 C 456 452, 438, 439, 419, 430
 L 416 429 L 415 429 L 415 430" fill="rgb(185,146,24)" />
<path  d="
 M 2413 281 C 2429 286, 2407, 301, 2405, 308
 C 2394 313, 2385, 314, 2376, 316
 C 2375 310, 2373, 306, 2375, 303
 C 2382 296, 2387, 290, 2392, 285
 C 2399 282, 2405, 283, 2412, 283" fill="rgb(141,85,21)" />
<path  d="
 M 2067 348 C 2070 355, 2075, 359, 2080, 366
 C 2092 373, 2105, 373, 2115, 377
 C 2133 376, 2149, 379, 2164, 374
 C 2139 368, 2113, 366, 2090, 358
 C 2081 356, 2075, 353, 2070, 348" fill="rgb(207,62,91)" />
<path  d="
 M 1392 510 C 1387 511, 1381, 512, 1375, 511
 C 1368 513, 1364, 516, 1357, 516
 C 1329 519, 1306, 528, 1279, 529
 C 1276 525, 1272, 526, 1267, 527
 C 1265 528, 1264, 531, 1263, 531
 C 1243 527, 1224, 525, 1207, 519
 C 1198 519, 1192, 519, 1186, 519
 C 1216 524, 1245, 531, 1273, 540
 C 1301 528, 1330, 525, 1357, 519
 C 1370 517, 1387, 512, 1396, 511" fill="rgb(150,111,23)" />
<path  d="
 M 2393 285 C 2388 290, 2383, 296, 2378, 302
 C 2374 306, 2376, 310, 2375, 313
 C 2385 313, 2395, 312, 2403, 309
 C 2422 292, 2422, 278, 2392, 286" fill="rgb(136,78,17)" />
<path  d="
 M 636 102 C 648 111, 610, 125, 604, 135
 C 598 134, 597, 131, 593, 131
 C 589 129, 586, 129, 584, 130
 C 579 132, 575, 132, 575, 136
 C 565 136, 560, 142, 551, 140
 C 576 129, 604, 116, 631, 106" fill="rgb(144,90,15)" />
<path  d="
 M 1994 374
 L 1995 373 C 2007 371, 2012, 379, 2023, 376
 C 2030 379, 2029, 371, 2035, 373
 C 2038 373, 2038, 375, 2039, 375
 C 2042 382, 2036, 379, 2034, 381
 C 2027 382, 2022, 383, 2018, 384
 C 2006 389, 1994, 390, 1984, 395
 C 1967 398, 1977, 384, 1982, 380
 C 1985 376, 1989, 377, 1991, 375" fill="rgb(89,37,131)" />
<path  d="
 M 920 360 M 920 358 M 922 359
 L 924 359 C 929 364, 941, 373, 924, 372
 C 927 373, 928, 372, 929, 374
 C 928 378, 927, 379, 924, 378
 C 911 383, 900, 378, 889, 380
 C 891 375, 896, 378, 899, 375
 C 898 376, 895, 374, 895, 373
 C 894 366, 898, 363, 901, 360
 C 908 360, 913, 359, 917, 361
 L 917 362 L 918 361" fill="rgb(208,72,55)" />
<path  d="
 M 1994 373 C 1992 378, 1987, 377, 1983, 378
 C 1962 412, 2019, 376, 2030, 382
 C 2036 378, 2041, 382, 2039, 377
 C 2037 374, 2035, 373, 2032, 374
 C 2030 378, 2027, 378, 2025, 377
 C 2013 379, 2007, 372, 1996, 373" fill="rgb(90,37,131)" />
<path  d="
 M 997 499 C 1003 505, 1017, 504, 1026, 506
 C 1025 512, 1019, 510, 1015, 511
 C 1034 512, 1051, 518, 1069, 520
 C 1072 518, 1070, 518, 1071, 515
 C 1075 513, 1079, 514, 1082, 512
 C 1062 509, 1042, 504, 1021, 501
 C 1013 500, 1006, 500, 1000, 499" fill="rgb(151,99,29)" />
<path  d="
 M 1890 103 C 1909 109, 1930, 118, 1948, 127
 C 1940 127, 1935, 133, 1928, 136
 C 1914 125, 1902, 117, 1889, 107" fill="rgb(140,86,16)" />
<path  d="
 M 635 105 M 634 106 M 633 106
 L 631 107 C 605 117, 576, 129, 552, 139
 C 560 141, 565, 135, 573, 136
 C 575 131, 579, 131, 582, 130
 C 586 128, 589, 128, 592, 129
 C 596 130, 599, 132, 600, 136
 C 612 124, 637, 114, 639, 104" fill="rgb(138,82,14)" />
<path  d="
 M 1265 368
 L 1267 367 C 1273 369, 1280, 373, 1287, 373
 C 1299 369, 1305, 370, 1314, 368
 C 1317 370, 1321, 369, 1322, 373
 C 1318 376, 1318, 378, 1316, 379
 C 1307 381, 1300, 383, 1293, 383
 C 1286 382, 1282, 378, 1276, 380
 C 1271 375, 1263, 373, 1262, 369" fill="rgb(202,61,85)" />
<path  d="
 M 1212 24 C 1255 24, 1300, 23, 1342, 25
 C 1304 26, 1201, 31, 1199, 24" fill="rgb(126,114,75)" />
<path  d="
 M 965 34 C 970 33, 976, 34, 981, 33
 C 1020 43, 921, 36, 910, 47
 C 912 38, 924, 42, 931, 35
 C 943 34, 953, 34, 963, 34" fill="rgb(133,122,35)" />
<path  d="
 M 1890 105 C 1901 116, 1914, 123, 1926, 134
 C 1934 133, 1939, 126, 1948, 128
 C 1931 118, 1911, 112, 1893, 104" fill="rgb(135,78,14)" />
<path  d="
 M 1549 35
 L 1550 34 C 1568 33, 1585, 36, 1603, 34
 C 1613 40, 1624, 39, 1634, 41
 C 1630 45, 1627, 46, 1624, 46
 C 1612 47, 1605, 40, 1597, 40
 C 1582 39, 1528, 42, 1543, 34" fill="rgb(133,123,35)" />
<path  d="
 M 2326 363 C 2333 365, 2322, 372, 2320, 373
 C 2312 375, 2306, 377, 2301, 378
 C 2288 377, 2279, 378, 2269, 376
 C 2287 369, 2306, 367, 2325, 365" fill="rgb(196,59,89)" />
<path  d="
 M 1265 368 C 1259 371, 1272, 374, 1274, 378
 C 1282 377, 1286, 381, 1291, 382
 C 1302 380, 1313, 381, 1319, 375
 C 1321 370, 1317, 371, 1316, 369
 C 1305 371, 1299, 370, 1289, 373
 C 1280 374, 1274, 371, 1268, 368" fill="rgb(205,62,86)" />
<path  d="
 M 920 359 C 920 361, 917, 361, 917, 362
 C 913 360, 908, 361, 904, 360
 C 899 364, 895, 367, 896, 371
 C 897 376, 903, 374, 905, 375
 C 921 373, 945, 372, 921, 358" fill="rgb(211,77,41)" />
<path  d="
 M 2328 364 C 2309 369, 2289, 369, 2271, 374
 C 2280 377, 2288, 377, 2299, 378
 C 2306 376, 2312, 374, 2317, 373
 C 2322 371, 2326, 368, 2328, 366" fill="rgb(200,59,91)" />
<path  d="
 M 967 35 C 956 36, 944, 35, 934, 36
 C 924 42, 913, 40, 905, 42
 C 921 35, 1048, 40, 966, 34" fill="rgb(124,113,32)" />
<path  d="
 M 1542 35 C 1539 40, 1612, 37, 1628, 46
 C 1623 41, 1613, 40, 1605, 36
 C 1585 37, 1569, 34, 1552, 34" fill="rgb(123,113,32)" />
<path  d="
 M 2055 203 C 2062 201, 2068, 205, 2073, 208
 C 2075 217, 2070, 221, 2068, 227
 C 2062 228, 2061, 223, 2059, 221
 C 2057 214, 2057, 210, 2056, 205" fill="rgb(102,48,130)" />
<path  d="
 M 1438 29
 L 1439 28 C 1452 26, 1463, 29, 1475, 29
 C 1473 30, 1474, 34, 1471, 33
 C 1461 33, 1410, 39, 1435, 27" fill="rgb(165,152,98)" />
<path  d="
 M 1202 25 C 1196 28, 1306, 26, 1337, 26
 C 1300 24, 1257, 25, 1216, 24" fill="rgb(114,102,64)" />
<path  d="
 M 2056 204 C 2057 209, 2058, 214, 2060, 218
 C 2061 223, 2063, 227, 2065, 227
 C 2069 220, 2074, 217, 2072, 210
 C 2067 206, 2063, 204, 2059, 203" fill="rgb(101,48,133)" />
<path  d="
 M 1327 268 C 1322 280, 1312, 290, 1308, 304
 C 1302 306, 1299, 308, 1296, 310
 C 1290 307, 1288, 302, 1282, 305
 C 1285 308, 1288, 311, 1292, 311
 C 1300 312, 1305, 310, 1308, 305
 C 1317 299, 1319, 291, 1323, 285
 C 1325 278, 1325, 273, 1327, 268" fill="rgb(153,92,113)" />
<path  d="
 M 1845 370 C 1850 369, 1857, 369, 1862, 370
 C 1863 375, 1862, 376, 1860, 377
 C 1852 374, 1824, 382, 1833, 371
 C 1840 371, 1841, 371, 1843, 370" fill="rgb(198,61,84)" />
<path  d="
 M 1033 336 C 1038 344, 1055, 338, 1065, 339
 L 1067 338 L 1067 339 L 1068 341
 L 1067 343 C 1066 344, 1064, 344, 1065, 346
 C 1058 347, 1053, 346, 1050, 348
 C 1046 347, 1044, 347, 1041, 346
 C 1041 340, 1032, 345, 1034, 339" fill="rgb(198,60,84)" />
<path  d="
 M 1439 28 C 1407 36, 1461, 33, 1468, 34
 C 1473 33, 1473, 30, 1475, 30
 C 1463 30, 1452, 27, 1440, 29" fill="rgb(160,146,94)" />
<path  d="
 M 1930 371 C 1937 366, 1951, 372, 1939, 379
 C 1930 375, 1920, 378, 1913, 375
 C 1918 372, 1923, 370, 1928, 370" fill="rgb(199,61,83)" />
<path  d="
 M 1118 505 C 1091 508, 1121, 508, 1129, 507
 C 1147 511, 1162, 517, 1179, 517
 C 1169 511, 1156, 512, 1145, 509
 L 1143 509 L 1141 508 L 1142 507
 L 1140 505 C 1133 507, 1125, 506, 1117, 505" fill="rgb(151,113,38)" />
<path  d="
 M 404 386 C 415 382, 409, 392, 404, 394
 C 397 398, 390, 401, 386, 404
 C 386 395, 394, 394, 398, 390
 L 401 389 L 401 387 L 403 388" fill="rgb(202,64,81)" />
<path  d="
 M 1810 429
 L 1811 426 C 1835 435, 1793, 429, 1792, 437
 C 1785 437, 1781, 438, 1778, 436
 C 1787 433, 1797, 430, 1807, 428" fill="rgb(94,48,120)" />
<path  d="
 M 1847 371 C 1842 373, 1836, 370, 1831, 374
 C 1840 376, 1849, 375, 1858, 378
 C 1865 368, 1853, 371, 1849, 371" fill="rgb(201,61,85)" />
<path  d="
 M 1712 372 C 1721 371, 1733, 372, 1740, 372
 C 1740 376, 1739, 377, 1736, 376
 C 1728 376, 1701, 379, 1709, 372" fill="rgb(196,61,82)" />
<path  d="
 M 912 374 C 904 375, 897, 378, 889, 378
 C 899 378, 907, 380, 917, 379
 C 935 378, 924, 370, 913, 374" fill="rgb(211,65,85)" />
<path  d="
 M 1033 338 C 1036 338, 1033, 342, 1035, 342
 C 1039 341, 1041, 343, 1041, 344
 C 1044 346, 1046, 346, 1047, 345
 C 1053 345, 1058, 346, 1063, 346
 L 1063 344 L 1064 343 L 1066 343
 L 1067 339 C 1061 341, 1046, 340, 1038, 342
 L 1035 340 L 1036 339 L 1035 339" fill="rgb(202,61,86)" />
<path  d="
 M 1932 371 C 1926 372, 1919, 372, 1914, 374
 C 1921 377, 1931, 374, 1937, 378
 C 1948 373, 1939, 368, 1933, 371" fill="rgb(202,62,84)" />
<path  d="
 M 406 387 C 401 388, 397, 392, 392, 394
 C 389 397, 385, 398, 385, 402
 C 393 397, 412, 393, 409, 385" fill="rgb(206,65,83)" />
<path  d="
 M 716 427 C 724 425, 732, 428, 738, 429
 C 735 434, 730, 432, 726, 433
 C 722 431, 714, 433, 716, 429" fill="rgb(93,47,121)" />
<path  d="
 M 2045 390 C 2024 394, 2003, 401, 1979, 401
 C 1969 404, 1961, 406, 1953, 409
 C 1983 404, 2039, 393, 2056, 390" fill="rgb(144,117,87)" />
<path  d="
 M 531 377
 L 533 376 C 532 380, 534, 382, 537, 384
 C 534 386, 533, 386, 532, 387
 C 523 386, 519, 376, 529, 376" fill="rgb(88,36,130)" />
<path  d="
 M 1949 130 C 1951 128, 1955, 130, 1957, 129
 C 1963 131, 1967, 132, 1969, 135
 C 1965 137, 1963, 137, 1960, 137
 C 1954 137, 1956, 131, 1952, 131" fill="rgb(159,105,11)" />
<path  d="
 M 1398 505 C 1396 516, 1422, 503, 1433, 507
 C 1423 500, 1412, 511, 1402, 504" fill="rgb(148,109,54)" />
<path  d="
 M 1811 429 C 1799 430, 1789, 434, 1778, 435
 C 1787 435, 1824, 430, 1815, 429" fill="rgb(90,44,119)" />
<path  d="
 M 1712 373 C 1698 377, 1736, 376, 1739, 375
 C 1733 372, 1723, 372, 1716, 373" fill="rgb(199,61,83)" />
<path  d="
 M 1589 187 C 1593 196, 1596, 206, 1601, 215
 C 1603 220, 1603, 216, 1605, 218
 C 1607 215, 1607, 213, 1608, 211
 C 1606 212, 1604, 212, 1602, 213
 C 1598 203, 1596, 196, 1591, 189" fill="rgb(178,73,63)" />
<path  d="
 M 248 225 C 241 234, 264, 225, 270, 227
 C 265 224, 257, 225, 250, 225" fill="rgb(179,106,103)" />
<path  d="
 M 1881 406
 L 1882 405 C 1885 404, 1887, 405, 1886, 408
 C 1887 412, 1883, 412, 1881, 413
 C 1874 413, 1874, 408, 1879, 407" fill="rgb(90,39,129)" />
<path  d="
 M 875 490 C 864 493, 889, 495, 893, 493
 C 889 488, 883, 490, 878, 489" fill="rgb(112,93,83)" />
<path  d="
 M 1130 338
 L 1131 337 C 1133 338, 1134, 339, 1133, 341
 C 1133 343, 1133, 344, 1133, 345
 C 1127 344, 1116, 340, 1128, 339" fill="rgb(194,59,85)" />
<path  d="
 M 1990 243 C 1984 249, 1975, 253, 1968, 259
 C 1973 259, 1976, 258, 1979, 256
 C 1984 252, 1985, 247, 1989, 245" fill="rgb(160,119,115)" />
<path  d="
 M 1770 186 C 1776 196, 1783, 205, 1790, 215
 C 1792 218, 1794, 217, 1795, 218
 C 1788 214, 1780, 196, 1772, 188" fill="rgb(185,75,66)" />
<path  d="
 M 1720 445 C 1724 444, 1730, 444, 1734, 445
 C 1730 448, 1714, 451, 1718, 445" fill="rgb(94,49,120)" />
<path  d="
 M 533 377 C 518 376, 525, 386, 535, 386
 C 534 383, 532, 381, 531, 379" fill="rgb(89,36,131)" />
<path  d="
 M 740 432 C 745 431, 751, 434, 756, 434
 C 750 436, 743, 438, 739, 435" fill="rgb(95,50,119)" />
<path  d="
 M 1951 130 C 1956 132, 1958, 139, 1967, 136
 C 1964 132, 1958, 130, 1953, 130" fill="rgb(153,98,11)" />
<path  d="
 M 2196 372
 L 2197 370 C 2201 373, 2200, 374, 2198, 376
 C 2194 378, 2192, 375, 2189, 376
 C 2191 373, 2192, 372, 2194, 372" fill="rgb(195,59,84)" />
<path  d="
 M 1881 405 C 1880 407, 1878, 408, 1876, 409
 C 1879 414, 1883, 411, 1885, 411
 C 1885 408, 1886, 405, 1884, 406" fill="rgb(91,40,130)" />
<path  d="
 M 696 463 C 697 465, 712, 466, 717, 465
 C 713 461, 706, 463, 700, 462" fill="rgb(122,98,80)" />
<path  d="
 M 1045 244 C 1040 245, 1036, 246, 1033, 249
 C 1041 242, 1069, 253, 1045, 243" fill="rgb(206,77,95)" />
<path  d="
 M 1130 337 C 1129 340, 1126, 341, 1124, 342
 C 1125 343, 1128, 342, 1128, 345
 C 1134 346, 1133, 341, 1132, 339" fill="rgb(200,61,87)" /></svg>